HIERARCHY
ROOT root
{
	OFFSET 0.000000 0.000000 0.000000
	CHANNELS 6 Xposition Yposition Zposition Zrotation Yrotation Xrotation
	JOINT lhip
	{
		OFFSET 0.058581 -0.082280 -0.017664
		CHANNELS 3 Zrotation Yrotation Xrotation
		JOINT lknee
		{
			OFFSET 0.043451 -0.386469 0.008037
			CHANNELS 3 Zrotation Yrotation Xrotation
			JOINT lankle
			{
				OFFSET -0.014790 -0.426874 -0.037428
				CHANNELS 3 Zrotation Yrotation Xrotation
				JOINT ltoe
				{
					OFFSET 0.041054 -0.060286 0.122042
					CHANNELS 3 Zrotation Yrotation Xrotation
					End Site
					{
						OFFSET 0.000000 0.000000 0.000000
					}
				}
			}
		}
	}
	JOINT rhip
	{
		OFFSET -0.060310 -0.090513 -0.013543
		CHANNELS 3 Zrotation Yrotation Xrotation
		JOINT rknee
		{
			OFFSET -0.043257 -0.383688 -0.004843
			CHANNELS 3 Zrotation Yrotation Xrotation
			JOINT rankle
			{
				OFFSET 0.019056 -0.420046 -0.034562
				CHANNELS 3 Zrotation Yrotation Xrotation
				JOINT rtoe
				{
					OFFSET -0.034840 -0.062106 0.130323
					CHANNELS 3 Zrotation Yrotation Xrotation
					End Site
					{
						OFFSET 0.000000 0.000000 0.000000
					}
				}
			}
		}
	}
	JOINT lowerback
	{
		OFFSET 0.004439 0.124404 -0.038385
		CHANNELS 3 Zrotation Yrotation Xrotation
		JOINT upperback
		{
			OFFSET 0.004488 0.137956 0.026820
			CHANNELS 3 Zrotation Yrotation Xrotation
			JOINT chest
			{
				OFFSET -0.002265 0.056032 0.002855
				CHANNELS 3 Zrotation Yrotation Xrotation
				JOINT lowerneck
				{
					OFFSET -0.013390 0.211636 -0.033468
					CHANNELS 3 Zrotation Yrotation Xrotation
					JOINT upperneck
					{
						OFFSET 0.010113 0.088937 0.050410
						CHANNELS 3 Zrotation Yrotation Xrotation
						End Site
						{
							OFFSET 0.000000 0.000000 0.000000
						}
					}
				}
				JOINT lclavicle
				{
					OFFSET 0.071702 0.114000 -0.018898
					CHANNELS 3 Zrotation Yrotation Xrotation
					JOINT lshoulder
					{
						OFFSET 0.122921 0.045205 -0.019046
						CHANNELS 3 Zrotation Yrotation Xrotation
						JOINT lelbow
						{
							OFFSET 0.255332 -0.015649 -0.022946
							CHANNELS 3 Zrotation Yrotation Xrotation
							JOINT lwrist
							{
								OFFSET 0.265709 0.012698 -0.007375
								CHANNELS 3 Zrotation Yrotation Xrotation
								End Site
								{
									OFFSET 0.000000 0.000000 0.000000
								}
							}
						}
					}
				}
				JOINT rclavicle
				{
					OFFSET -0.082954 0.112472 -0.023707
					CHANNELS 3 Zrotation Yrotation Xrotation
					JOINT rshoulder
					{
						OFFSET -0.113228 0.046853 -0.008472
						CHANNELS 3 Zrotation Yrotation Xrotation
						JOINT relbow
						{
							OFFSET -0.260127 -0.014369 -0.031269
							CHANNELS 3 Zrotation Yrotation Xrotation
							JOINT rwrist
							{
								OFFSET -0.269108 0.006794 -0.006027
								CHANNELS 3 Zrotation Yrotation Xrotation
								End Site
								{
									OFFSET 0.000000 0.000000 0.000000
								}
							}
						}
					}
				}
			}
		}
	}
}
MOTION
Frames: 7
Frame Time: 0.033333
0.627104 0.836429 0.935203 16.162135 5.335421 103.592222 18.414317 0.230084 -42.867410 -6.253066 6.502331 38.947648 4.172992 7.030487 -13.379221 0.000000 -0.000000 0.000000 -25.553188 -11.660772 -9.873470 -2.184431 0.935953 12.381577 14.033824 -9.672887 32.995738 0.000000 -0.000000 0.000000 -6.427019 10.144456 21.773521 4.962149 -8.113538 2.690224 4.233978 -3.248563 0.753410 4.217324 -26.426352 -13.566054 17.760560 -19.172726 -10.286857 -17.944500 -13.855793 3.911081 -66.724364 -23.567690 29.868978 -137.915339 -75.702823 177.779811 49.209157 -2.801516 -13.298314 18.491148 3.145053 -1.620209 52.795536 -3.445761 -5.245653 -65.475424 31.787554 -65.011123 -15.855908 -2.465972 -27.659333 
0.625668 0.835267 0.935256 15.909848 5.353446 103.715330 18.535424 0.484154 -43.131656 -6.300337 6.501298 39.333607 4.308771 7.222523 -13.416210 0.000000 -0.000000 0.000000 -25.574192 -11.694465 -10.030542 -2.038293 1.232569 12.461093 14.321097 -9.493738 32.663705 0.000000 -0.000000 0.000000 -6.461871 10.059342 22.077871 5.294453 -8.203063 2.435775 4.412898 -3.502947 0.659863 5.009002 -29.268835 -13.668005 18.976799 -21.405367 -10.047019 -18.062631 -13.446553 4.454940 -66.518289 -23.481871 29.616026 -139.733391 -75.275427 179.360032 49.565184 -2.652128 -13.383021 18.579250 3.202965 -1.537673 51.982522 -3.548315 -5.955295 -64.832168 31.808544 -65.284292 -15.874121 -2.180690 -27.621531 
0.623955 0.834076 0.935260 15.585465 5.332349 103.811599 18.648563 0.680098 -43.138700 -6.287714 6.506885 39.362151 4.355851 7.364158 -13.388456 0.000000 -0.000000 0.000000 -25.511912 -11.616076 -10.119356 -2.107934 1.342759 12.325370 14.433010 -9.503188 32.386001 0.000000 -0.000000 0.000000 -6.516994 9.855551 22.122368 5.451328 -8.267584 2.630085 4.312382 -3.563270 0.732893 5.579209 -29.945628 -14.391573 19.729137 -23.111848 -10.059907 -17.932446 -12.845279 4.432342 -66.186041 -23.475300 29.646465 -141.496963 -74.829464 -179.143630 49.397330 -2.482869 -13.589852 19.344020 3.129645 -1.735111 50.984435 -3.389547 -6.043431 -64.516148 31.492097 -65.634014 -16.267132 -2.188625 -27.180107 
0.622378 0.832881 0.935463 15.351111 5.216065 103.947143 18.635172 0.903825 -43.170970 -6.237265 6.561814 39.328337 4.118859 7.296190 -13.350429 0.000000 -0.000000 0.000000 -25.597846 -11.758070 -10.149193 -2.062566 1.028917 12.263993 14.705844 -9.262999 31.710448 0.000000 -0.000000 0.000000 -6.618052 9.766836 22.105136 5.657826 -8.370797 2.831743 4.541257 -3.845197 0.680341 6.481730 -30.355889 -14.141527 19.632111 -22.288005 -11.863113 -18.205310 -12.208420 4.450849 -65.755487 -23.159463 29.506381 -143.175080 -74.211958 -177.676438 49.807897 -2.219353 -13.760119 19.399770 2.938606 -2.046808 50.495496 -3.121352 -5.757332 -64.173656 31.253948 -65.900984 -16.472109 -2.154929 -26.925599 
0.620818 0.832548 0.935797 15.106316 5.121817 104.075311 18.689060 1.009628 -43.185754 -6.184764 6.644685 39.196162 4.040684 7.410433 -13.384042 0.000000 -0.000000 0.000000 -25.686429 -11.928896 -10.169647 -1.844481 0.665338 12.104478 14.874853 -9.066745 30.953087 0.000000 -0.000000 0.000000 -6.654902 9.700642 22.260004 5.803055 -8.478648 2.662163 4.636163 -3.808557 0.661519 6.876264 -30.672863 -14.144441 20.038566 -22.891117 -12.040036 -18.254053 -11.906134 4.699293 -65.507976 -23.049043 29.404498 -144.146713 -73.823363 -177.003941 49.955781 -2.065905 -13.907919 19.606466 2.747532 -2.200372 49.966919 -3.103368 -5.903051 -63.781503 31.441304 -65.900182 -16.365157 -2.209570 -27.191033 
0.618698 0.832649 0.936186 14.828544 5.113166 104.114051 18.821465 1.256313 -43.142585 -6.146951 6.711738 39.100784 3.751212 7.338810 -13.361821 0.000000 -0.000000 0.000000 -25.589263 -11.958647 -10.241322 -1.821168 0.265577 11.975088 14.815347 -9.001341 30.794137 0.000000 -0.000000 0.000000 -6.588302 9.601833 22.508273 5.902864 -8.574945 2.651333 4.814451 -3.657180 0.168535 7.332438 -32.110217 -13.114601 20.368806 -23.351768 -11.771710 -18.425300 -11.750136 5.353495 -65.198042 -22.906584 28.658953 -144.874293 -73.407861 -176.157835 49.752312 -1.999865 -14.211675 19.128306 2.754847 -1.594958 50.256115 -2.784255 -6.750990 -63.386232 31.858261 -65.219678 -16.134365 -2.031639 -27.260479 
0.616349 0.832635 0.936752 14.718503 4.980938 104.261634 18.846252 1.357058 -43.078065 -6.141575 6.718783 38.663777 3.582573 7.327945 -13.164175 0.000000 -0.000000 0.000000 -25.551808 -11.999454 -10.330188 -1.737900 0.109692 11.813166 14.497936 -9.339157 30.704904 0.000000 -0.000000 0.000000 -6.603711 9.653672 22.468936 5.946957 -8.416420 2.619206 4.837362 -3.695277 0.311988 7.365135 -31.848826 -13.470444 20.094589 -23.474026 -11.425787 -18.486044 -11.656514 5.417353 -64.969834 -23.053222 28.653354 -145.410716 -73.382893 -175.659832 49.804249 -1.956169 -14.168893 19.316002 2.673228 -1.684841 50.121416 -2.725529 -6.573192 -63.273754 31.861886 -65.219532 -16.185353 -2.181150 -27.530107 
